<svg xmlns="http://www.w3.org/2000/svg" xmlns:xlink="http://www.w3.org/1999/xlink" width="1137" height="689" viewBox="0 0 1137 689">
  <defs>
    <clipPath id="clip-path">
      <path id="Path_47" data-name="Path 47" d="M0-416.086H1137v689H0Z" transform="translate(0 416.086)" fill="none"/>
    </clipPath>
  </defs>
  <g id="Background" opacity="0.075" clip-path="url(#clip-path)">
    <g id="Group_24" data-name="Group 24" transform="translate(321.938 0.001)">
      <path id="Path_5" data-name="Path 5" d="M58.591,4.96c-.1,4.632-3.3,5.8-5.841,7.794C48.27,9.721,41.655,9.029,33.712,9.623,38.668,3.2,52.38,5.939,58.591,4.96M48.369,79.944c-3.917-2.79,0-10.318,4.381-9.346-.741,3.842-3.915,5.168-4.381,9.346M33.712,86.167c2.893,0,1.819-4.224,5.874-3.135,5.408,2.028,8.538,6.584,16.071,6.276,4.969-3.741-7.006-6.942-2.906-9.364,2.189.8,3.7,2.31,5.841,3.088,1.157-5.387-1.635-6.586-2.934-9.364,12.081-.671,8.111-16.4,5.924-24.979a29.972,29.972,0,0,1,13.106-1.538c-.379-6.9-7.861-6.18-11.66-9.4,4.552.757,3.264-4.754,8.727-3.135,1.046-4.747-2.509-4.559-1.456-9.371,5.233.861,3.6-5.534,8.8-4.685,3.664-1.282,12.585,3.073,11.715-3.095,1.345-5.69-6.353-1.585-7.32-4.709-3.46-.462-2.751-5.4-7.324-4.68-6.33-.937-13.145,5.633-16.1,3.161C60.975,3.342,72.965,7.257,74.686.3,71.644-4.24,65.217-5.169,57.094-4.4c-4.714-1.8-10.545-4.128-13.15,0-1.223-2.293-4.663-2.267-7.294-3.163C30.764-3.409,16.4-8.31,10.37-4.4,3.6-4.24-4.518-5.658-7.261-1.253c-.129,3.395,4,10.111,1.43,10.876-10.56-1.772-16.518,1.088-26.254-1.548C-46.756,10.239-53.593,20.5-68.7,22.165c-1.39,5.637,6.568,1.252,5.811,6.269-4.224,3.774-12.059,3.679-16.026,7.8-3.612-2.03-8.354-1.712-10.275,4.66,4.683-1.351,4.527,2.462,7.3,3.083-.043-4.136,7.33-4.136,7.33,0,3.556-.917,9.947-6.94,10.225,1.614-6.248.624-15.032-1.528-19.028,1.56,1.339,5.837,6.876,7.192,11.733,9.323,4.514,1.143,2.762-4.285,7.3-3.1,4.464,3.082,8.974,6.059,17.57,4.7-1.191,6.938,1.009,10.383,2.944,14.04-.5,3.655-2.333,5.892-1.466,10.921,5.839,3.06,6.757-7.178,10.263-1.517.8,5.567-4.424,4.743-8.8,4.651,1.229,7.006,11.12,4.829,13.14,10.941-3.321,2.7-7.368,4.58-10.245,7.823,4.119,2.038-4.548,3.212-2.895,7.8,10.426,7.543,2.343,25.388,10.192,35.932h10.275c4.242.192,2.55,6.637,7.289,6.223,1.475-3.125,2.533-6.668,5.892-7.839-1.773-11.772,7.294-11.921,5.864-23.4,3.738-.119,2.051-6.069,5.806-6.239,5.584,3.174,5.584-3.7,11.741,0a57.094,57.094,0,0,1,7.334-6.2c7.064-1.889,10.184-7.907,17.524-9.382.6-5.635,12.926-6.995,8.78-12.512-2.939,3.567-9.092-2.686-13.173-3.141" transform="translate(89.186 7.562)"/>
    </g>
    <g id="Group_25" data-name="Group 25" transform="translate(258.801 9.404)">
      <path id="Path_6" data-name="Path 6" d="M14.005,21.64c.757.818-1.074,2.07-1.488,1.6-.756-.8,1.067-2.032,1.488-1.6M-16.706-6.4V2.914c4.449-1.086,5.3,1.616,8.717,1.576C-7.315-2.625,1.514-9.285,6.672-6.4,8.89.138-.911-6.2-.616-1.749,3.8.6-5.679,1.052-5.026,4.49c3.808-.96,5.209.629,4.411,4.651-3.446.06-4.328-2.7-8.808-1.5.215,4.425-4.916,3.047-2.911,9.359C-3.6,15.787,2.7,14.83,6.672,21.64c-11.615,2.684-19.111-6.168-26.342-3.1-1.162,7.518,8.863,3.058,8.818,9.419C.183,26.27,15,34.881,18.38,23.238c3.814.472,6.28-.585,5.856-4.7,1.084-4.239-6.828,1.153-5.856-3.113h10.27C28.6,7.1,37.575,8.267,35.963-1.749c7.567-.243,8.29-7.788,17.635-6.289,1.781-3.747,4.658-6.3,10.174-6.236,1.881-3.865-3.251-7.566,0-7.8,6.139-2.992,15.113,1.566,17.567-7.794,0-2.562-4.086-.841-4.349-3.12C53.018-29.519,20.361-37.535-5.026-26.76c-1.962,9.434,6.3,7.857,7.307,14.09-9.508.8-6.621-11.706-17.512-9.409-.469,2.149-2.151,3-1.475,6.292-2.363.108-5.09-.252-4.409,3.116-1.273,5,3.818,3.232,4.409,6.269" transform="translate(21.319 32.993)"/>
    </g>
    <g id="Group_26" data-name="Group 26" transform="translate(591.158 20.317)">
      <path id="Path_7" data-name="Path 7" d="M12.764,4.947C13.528.569,20.436,2.695,18.651-4.4,5.271-6.684-7.537-7.186-19.414-7.542c-.106,2.779.343,4.906,1.433,6.294C-8.733,1.9-1.148,6.828,12.764,4.947" transform="translate(19.429 7.542)"/>
    </g>
    <g id="Group_27" data-name="Group 27" transform="translate(558.959 23.238)">
      <path id="Path_8" data-name="Path 8" d="M2.924,6.9c-.191,3.862-2.747,4.832,0,7.809,6.011-.331,6.222-6.92,13.125-6.279C15.7,15.387,8.877,15.372,8.77,22.5c2.444,2.083,4.906,4.1,10.273,3.143-.7,4.875,3.079,4.991,7.291,4.642a156.019,156.019,0,0,1,4.388-17.15c3.861,4.155,6.093,10.172,16.114,7.826,1.291-11.9-7.743-12.63-11.71-18.717C34.683,5.887,31.187.418,29.2.607c-3.554.28-6-.783-7.2-3.077,3.408-4.16-1.239-9.172-7.372-7.818-4.293,2.525,2.323,8.1-1.48,9.343-3.108-7.405-17.081-14.728-17.6,0,.7,4.539,6.308,3.7,7.375,7.841" transform="translate(4.451 10.513)"/>
    </g>
    <g id="Group_28" data-name="Group 28" transform="translate(700.932 23.655)">
      <path id="Path_9" data-name="Path 9" d="M5.209,2.405C5.078-7.468-8.389-4.1-7.917,3.958-2.925,8.822-.222,1.789,5.209,2.405" transform="translate(7.929 3.667)"/>
    </g>
    <g id="Group_29" data-name="Group 29" transform="translate(795.852 27.837)">
      <path id="Path_10" data-name="Path 10" d="M.1,4.449C11.6,2.369,23.67,9.889,26.393-.262,22.953-6.288,9.565-8.833,1.568-4.894-1.729-4.7.861,1.674.1,4.449" transform="translate(0.155 6.783)"/>
    </g>
    <g id="Group_30" data-name="Group 30" transform="translate(478.473 46.808)">
      <path id="Path_11" data-name="Path 11" d="M178.726,88.489c2.05-2.962,3.239-6.9,8.8-6.193.06,2.414-.711,5.928,1.422,6.193-2.205,4.7-6.406-1.287-10.222,0M112.827-108.3c-.757-.792,1.065-2.015,1.49-1.583.739.873-1.077,2-1.49,1.583m-4.386,3.138c-.741-.8,1.072-1.976,1.455-1.533.757.737-1.016,1.976-1.455,1.533m-4.444,1.6c-.707-.792,1.123-2.075,1.559-1.6.78.84-1.107,2.015-1.559,1.6M13.321-75.5c-2.78-.643-6.28-.505-5.844-4.668-4.376-.31,1.377-6.494,0,0,1.044,2.5,7.138-.354,5.844,4.668M-94.953-50.516c-.764-.795,1.039-1.975,1.466-1.53.727.808-1.072,1.976-1.466,1.53m-1.428,193.728c-.764-.825,1.042-2.045,1.428-1.6.8.773-1.037,2.032-1.428,1.6M-122.74-81.712c-.769-.843,1.059-2.01,1.452-1.59.736.841-1.044,2.022-1.452,1.59m-11.7,60.881c-.091-4.713,5.163-3.845,8.764-4.666.118,4.832-4.4,4.653-8.764,4.666m-16.071-10.911q4.118,4.883,11.625,6.244V-9.884c-3.286-.639.828-9.182-5.806-6.231-3.239,5.388-1.191,16.38-5.819,20.313-4.876.487-8.479-.747-11.778,0-4.068.878-4.929,4.516-8.775,4.681.467-1.914-4.187-5.4-4.336-1.581-3.432-.452-3.432-4.254,0-4.7-3.345-3.734-5.644-8.611-5.871-15.62,7.3.672,4.489,22,17.547,15.62,3.289-6.342,5.549-13.827,8.75-20.33a38.055,38.055,0,0,0-2.943-9.384c.873-14.673,11.3-19.18,16.089-29.641,1.768-.207,2.668.344,2.941,1.58-1.173,10.727-12.971,10.03-11.625,23.434m491.678-17.2c3.433-.508,2.724-5.383,7.243-4.643,7.66.144,6.624,9.614,16.109,7.736,1.917-2.77-1.309-7.837,1.49-12.441-3.894-1.9-9.577-10.262-13.136-3.143.449-3.617-.273-5.983-1.451-7.8-7.977-3.06-12.208-10-24.891-7.823-1.688-2.9-5.654-3.322-7.322-6.254-9.576,1.361-11.617-5.344-21.984-3.145-2.026,4.593,4.033,8,0,9.4-4.237-.679-3.461-6.746-7.287-7.8-4.3,4.83-12.207.46-20.609,3.136-5.224-3.655-4.837-13.5-15.983-10.927-2.119.353-.5,4.651-2.969,4.651a162.777,162.777,0,0,1-17.527-9.3c-.659,1.363-1.284,2.714-2.911,3.078,1.829-6.135-3.5-4.66-7.352-4.66,3.607-3.709-1.581-3.537-2.87-6.291-7.055,2.754-6.54-.9-13.186-1.533-.51,2.086-3.713,1.285-5.847,1.533-1.473,2.921,4.363,5.239,0,6.291-12.586-2.133-28.557,2.772-39.578,0-3.685-.994-5.1-5.777-8.719-4.688-6.78,1.653-11.294-1.626-16.147-3.136-1.708-.623-4.026.353-5.791,0-3.67-.74-6.447-4.971-14.628-3.188.553-4,4.308-4.7,4.359-9.326-2.069-4.587-6.764-6.3-8.77-10.972-4.417,2.095-11.2,1.651-17.572,1.616-3.659-1.313-3.069-7.086-8.782-6.268-3.435,1.57-4.673,5.385-4.391,10.937-7.256-2.522-4.659,5.469-10.243,4.686-2.807-.642-1.178-6.074-5.854-4.686-3.789,4.289-9.092,7.006-17.514,6.213-2.608,2.014-3.882,5.3-8.787,4.738-2.063,1.98-.674,7.62-4.467,7.783-3.009.987-10.117-2.534-8.677,3.116,0,5.736,8.51,2.3,7.272,9.406-5.383-1.687-6.832-7.306-14.674-6.231,0,4.077.822,9.165-2.929,9.353-1.692-1.86-1.692-5.577-1.465-9.353-5.7-1.373-2.353,6.784-8.747,4.66-2.292-2.792-2-8.338-8.782-6.276C-8.337-93.916-13.929-88.945-18.89-83.3c-9.479.747-8.764-2.914-18.984-3.145-2.368,7.715,7.571,2.381,5.837,9.4-6.107-1.513-12.661.793-21.955,0-6.591,2.855-10.194,8.9-17.55,10.912V-75.5c-3.635.255-7.049.28-8.765-1.547.356,8.742.061,16.69-8.785,15.619.487,5.771-5.357,4.673-8.782,6.253-3.622,2.088,2.6,4.685-1.488,6.238-8.565,1.84-9.063-11.3-8.744-14.014,6.79.038,14.268-.692,19.013,1.523,3.907-9.79-8.225-14.842-17.585-15.619-2.285-3.8-6.228-5.817-11.647-6.254-2.035-3.626-4.149-6.99-7.357-9.338H-138.89c-3.958,2.959-7.7,6.329-11.625,9.338-.671-2.283-1.919.652-4.462,0-5.223,5.912-11.774,10.32-17.514,15.673q-2.473,10.668-8.783,17.112c-.278-1.807-2.7-1.283-4.4-1.53v6.2c-9.3.614-10.26,9.892-13.218,17.216,2.958,3.684,3.382,9.982,2.958,17.155,1.413,4.224,9.249,1.684,11.738,4.718-3.2,4.6-5.864,6.321-5.864,10.954,3.115-.747,2.747,2.179,2.906,4.681-5.2.1-8.484,2.423-13.14,3.057-1.35,2.823-4.144,4.016-2.974,9.414-8.311-2.646-3.263,9-10.23,7.791.232,1.856-.3,2.782-1.518,3.118-6.421-.679-7.71,4.239-11.7,6.3-3.528.84-7.46,1.326-7.221,6.225,1.886,2.126,6.333,1.527,10.177,1.573-.694,7.048,6.785,5.276,5.9,12.505-1.508,2.077-1.468,5.806-4.441,6.223-6.808-3.726-12.866,1.4-21.908,0-1.481,5.158,3.256,17.013-2.989,17.21,1.084,4.584,4.456,6.74,2.989,14.042,6.8-1.555,8.845,2.032,13.191,3.1,5.463-2.991,6.185-2.991,11.668,0,3.322-6.316,8.369-10.891,7.289-21.866,6.434-1.99,5.344-11.982,13.169-12.484,6.215,3.9,8.717-1.093,14.7-1.555-4.139,6.074-2.051,15.829,0,23.434,9.259-.893,3.5-8.852,4.356-17.208-1.483-.027-1.839-2.75,0-3.115v3.115c3.019.475,2.906,4.186,4.432,6.279,7.093.167,11.5,3.183,13.111,9.384-.24,3.378-3.657,3.31-7.342,3.068-.187,5.479,5.181,4.923,7.342,7.849-.693-7.031,3.937-8.3,7.315-10.917.822-3.527-2.767-2.237-2.943-4.746,2.707-4.875,4.966,5.282,7.4,0-4.023-8.246-22.216-9.637-17.56-21.812,4.348,7.142,12.614,10.5,17.56,17.173.814,1.187,2.066,4.86,2.857,6.259,1.147,1.947,3.556,3.739,2.963,6.193v9.369c1.887,2.126,6.371,1.537,10.252,1.578,2.446-5.373-2.631-13.062,1.418-18.761h4.383c-1.63,6.162-.242,5.829-1.405,12.462,3.271-.543,1.949,4.531,4.368,6.3,5.322,3.979,15.091,2.755,19,0,4.383,2.265-3.806,8.112,2.906,7.834,6.038,1.151.318-10.111,7.39-7.834v9.344c-4.308,2.754-1.352,13.232-7.39,14.054-10.644-4.155-23.913-5.622-38.06-6.2-4.22,1.191-3.488,7.7-7.287,9.406-6.729-7.427-20.049-7.834-26.286-15.643,1.118-5.408-1.675-6.627-2.943-9.392,3.413-.437,3.34-4.186,1.417-6.243a48,48,0,0,0-21.958,4.676c-11.862-.744-22.157.22-27.828,6.287-1.244-3.282-4.23-4.812-8.739-4.721-1.213,5.5-6.469,6.61-10.213,9.392-3.98,7.334-2.489,16.91-5.823,23.406-2.2,4.122-10.049,8.344-13.226,12.52-.237,9.129-3.609,14.9-7.337,20.308v40.59c5.06,6.071,9.481,12.852,11.751,21.84,6.737,4.262,11.262,10.926,20.463,12.492,5.9-1.542,12.893-1.874,20.493-1.542,3.031-2.535,2.823-8.424,8.838-7.821,2.61.258.832,5.286,2.953,6.225,6.739-.994,9.324,2.509,14.573,3.138,2.505-1.371,3.725-4.357,8.79-3.138,1.471,12.073-3.117,17.6-2.958,28.167,4.176,8.008,11.314,14.069,8.8,24.974,3.864,5.249,4.129,14.314,5.856,21.856-3.619,7.1-2.784,18.819-5.856,26.531,6.27,6.36,10.8,14.5,13.226,25.016v14.057c6.482,8.116,6.32,23.347,13.128,31.242,14.072-1.093,21.121-9.651,33.669-12.482,2.22-8.591,6.669-14.719,13.123-18.76-.732-6.052,2.636-7.632,1.43-14.057,2.628-1.414,3.76-4.36,8.818-3.151.159-18.01,6.131-29.808,17.6-35.912a149.863,149.863,0,0,0,0-43.706,82.85,82.85,0,0,0,7.239-20.313c3.508-2.532,6.455-5.605,10.278-7.827,6.964-10.778,13.279-22.287,20.515-32.746,1.113-5.862,3.055-13.832-1.508-17.212-6.26-.945-5.91,5.107-11.643,4.695h-13.2c-.7-10.694-7.991-14.4-13.216-20.3,1.3-10.268-8.684-8.422-5.832-20.341-2.484-3.544-7.045-4.966-8.764-9.343,1.39-4.7-2.1-12.151,0-12.482,3.486,2.673,7.42,10.864,5.823,14.037,6.144,6.544,10.205,15.123,16.122,21.883,3.494,6.5,2.936,16.254,10.28,21.85,10.2-3.628,17.357-10.563,29.225-12.538,2.051-.912.258-5.981,2.895-6.19,6.356-1.095,9.017-6.064,14.666-7.859-1.041-6.809,4.292-6.938,4.414-12.454-2.527-5.625-10.063-5.961-8.828-15.6-5.533-.772-9.3.434-11.678,3.049-1.21-5.9-6.6-7.48-5.887-15.59-4.724.406-4.225-4.8-7.259-6.239,2.172-.828,3.672-2.265,5.841-3.131,8.088,5.39,5.658,22.043,20.5,20.32.592,3.007,4.147,2.871,2.9,7.819,7.083.773,8.126-4.84,14.667-4.668,1.49.982,1.518,3.54,4.383,3.133,10.177-1.628,12.712,5.138,18.936,7.751-2.418-.543-2.727,1.239-2.83,3.158,1.509,2.987,6.7,2.115,8.8,4.683-.775,4.911,2.611,5.494,1.362,10.929,4.456,5.2,6.346,13.068,8.812,20.315,3.1,2.986,6.109,5.981,7.395,10.9v9.43c1.823,2.161,6.326,1.494,10.19,1.53,1.944-9.972,7.18-16.289,5.831-29.676h5.877v-6.284c5.528,2.325,2.832-4.228,7.292-3.068-.413-7.177,5.354-7.875,7.34-12.517a27.2,27.2,0,0,1,13.156-6.238c3.322,4.29,3.34,12.083,8.822,14.11.51,3.666-2.7,3.307-1.559,7.713,1.645,5.1,11.643,1.176,14.725,4.68-1.97,3.313.731,4.65-1.508,9.424a11.5,11.5,0,0,1,7.312,9.361c-.532,2.952-4.169,2.822-2.9,7.829.449,4.714,4.515,5.551,2.9,12.487,7.05,6.5,13.695,13.5,21.946,18.747.391-10.32-6.886-12.375-7.281-21.9-4.079-2.991-7.965-6.094-10.266-10.931.673-5.06-1.927-13.469,2.911-14.052,3.208,4.436,5.511,9.826,11.8,10.926,1.09,1.439,1.536,3.512,1.374,6.231,14.22-1.99,17.68-15.508,16.091-34.315-1.871-1.585-5.378-1.558-7.294-3.121,1.864-6.89-7.016-6.418-2.923-10.954,4.287-4.36,3.813,5.138,10.217,3.131,1.06-6.692,8.5-6.622,16.117-6.273,4.646-7.521,10.875-13.315,13.148-23.439,2.383.459,2.514-1.447,4.4-1.5,2.454-6.345-.328-18.061,4.416-21.845-3.122-1.439-4.416-4.633-4.416-9.455-2.467-1.951-5.695-3.209-5.814-7.779-.648-3.747,2.7-3.416,1.417-7.794,3.032.479,4.621-.316,4.4-3.2,4.2-1.977-6.6-9.323,2.964-9.323,1.659,4.984,6.717,6.294,8.8,10.946-1.435,8.246,2.751,10.609,7.347,12.51,8.765-6.809-.308-23.978,4.359-35.9,3.07-2.971,7.479-4.512,11.7-6.281,3.38-7.306,6.373-15.006,11.64-20.3,2.026-12.58-3.322-25.546,0-34.365-1.992,8.919,3.379,9.974,4.417,15.617.288,9.685.727,19.035,7.35,21.843,2.724-2.764-1.195-3.951,0-9.319,3.988-.187,2.946,2.6,5.839,0,.255-4.964-3.887-5.3-2.893-10.992-5.289-1.061-6.668-6.37-8.813-10.9C246.932,11.042,248,3.6,243.126,2.6c-3.059.394-.394,6.943-4.374,6.281-2.48-11.5-12.422,7.18-16.172-4.681,1.012-3.645,3.71-5.377,5.9-7.8,1.678-4.981,1.094-12.318,5.862-14.127,3.355,3.862,2.668-2.29,7.233-1.543,6.9,1.038,13.279,4.1,22.022,3.159-.509,2.663,1.128,2.974,2.877,3.093,1.927-2.156,6.4-1.485,10.276-1.58.741-4.923-2.6-5.476-1.453-10.9,2.971-.445,2.845-4.211,5.844-4.691,3,.48,2.88,4.246,5.861,4.691-.683-3.433,4.351-8.617,5.8-4.691-4.676,10.025-11.544,17.809-13.145,31.219.956,4.221,4.185,5.963,5.885,9.389.646,5.983,1.718,11.7,5.811,14.037,3.657-3.928,5.808-9.425,10.26-12.52-1.339-7.722,4.691-6.582,1.539-12.446.371-3.163,3.867-3.088,4.335-6.246-2.154-1.86-6.56-1.4-5.874-6.266,1.442-13.7,11.042-10.745,21.976-9.377,2.114-2.4,1.907-7.273,4.391-9.343,8.532-.677,14.959-4.963,20.429-4.713,0-6.682-7.241-5.711-7.243-12.484" transform="translate(272.054 134.911)"/>
    </g>
    <g id="Group_31" data-name="Group 31" transform="translate(0 49.526)">
      <path id="Path_12" data-name="Path 12" d="M59.16,104.119c3.485.532,3.322,4.857,5.872,6.241-1.846,3.941-7.123-1.674-5.872-6.241m-1.412-3.131c.275-1.773,1.412-.828,1.412,0-.229,1.813-1.412.891-1.412,0M88.5-123.838c-.792-.856.956-2.065,1.4-1.581.766.788-1.009,1.956-1.4,1.581m45.323-3.2c4.631-.719,5.17,2.886,10.243,1.616,0,6.19-5.733,6.39-10.243,7.75Zm5.844-7.813c4.5,1.523-1.607,4.206-1.5,6.256-4.421-1.5.7-5.274,1.5-6.256M252.374-12.983c.722.808-1.067,1.951-1.488,1.533-.744-.8,1.051-2.035,1.488-1.533m67.3,259.269c-2.572-2.933-4.3.651-7.306,1.532-2.306-5.347-7.982-7.132-13.128-9.417h-10.25c-2.623-4.512-12.424-1.335-13.193-7.765-3.9,0-8.654.878-8.739-3.135,4.205-7.284-4.34-27.225-17.607-20.25a17.893,17.893,0,0,1-8.759-14.122c-7.647-2.267-13.1-6.842-20.54-9.341-1.9.576-2.278,2.726-4.366,3.11-1.985-5.625-9.112-5.887-10.288-12.471-4.676-1.4-3.016,4.006-5.823,4.688-3.4-1.09-3.881-5.2-7.327-6.246-1.326,2.714-2.661,5.393-7.307,4.673-2.252,6.491-8.1,9.025-11.68,14.075.335-5.152-1.781-7.539-5.9-7.829-3.763,1.646-5.426,5.617-10.3,6.236-3.415-7.622,1.544-14.849,0-25.019-2.641-5.413-12.339-3.357-17.5-6.191,1.451-6.821,5.7-10.571,4.4-20.311-7.1.946-7.479.946-14.613,0-2.7,3.365-1.405,10.965-5.874,12.452-19.582,1.136-7.34-26.776-11.706-39.026,5.18-1.3,8.265-4.675,13.189-6.213,8-.74,9.879,5.009,17.517,4.645-.119-2.192-.3-4.373,1.486-4.645,7.044.366,16.463-2,17.549,4.645-.631,9.045,3.231,13.289,10.232,14.1-1.753-8.053-.973-10.5,0-15.65-1.654-2.34-4.166-3.827-4.381-7.821,2.459-10.346,8.924-16.516,19-18.756,1.347-4.544,1.347-4.761,0-9.343,3.422.447,5.629-.255,7.4-1.578-3.649-8.561,4.759-6.672,2.876-17.183,4.871-2.095,9.508-4.347,14.6-6.228.77-4.91-4.432-3.55-2.9-9.361,5.354-4.728,13.474-6.48,20.561-9.384,1.014,4.241-2.978,3.161-2.978,6.246,5.857-2.6,12.069-4.8,16.13-9.348-3.612-2.442-10.9-.969-10.273-7.816.817-4.338,5.615-4.353,8.8-6.226.587-3.8-2.7-3.38-1.5-7.831,7.12,5.143,15.365-7.558,20.49-4.693-3.382,8.366-10.351,12.871-13.159,21.843,5.418,1.131,6.3-2.656,11.667-1.522.136,2.413-.645,5.945,1.493,6.244,1.45-3.862,5.6,2.141,10.248,0-.711-3.592-2.871-7.973,0-10.951-5.34-.54-6.7-5.345-8.8-9.392a136.422,136.422,0,0,0,0-20.323c-2.807-2.885-3.642-.094-7.289,0,.157-7.384-6.765-7.361-7.32-14.014,1.122-1.348,1.553-3.544,1.453-6.239-5.635-3.424-3.6-15-11.738-15.643-.742,2.288,1.756,8.082-1.45,7.846-3.021-.931-9.619,1.957-10.25-1.616V-59.859c-7.832,3.757-6.4-3.643-13.191-4.69-3.847,4.3-3.155-1.825-7.271-1.535-3.548-.626-3.161,2.83-7.334,1.535,2.184,15.566-3.972,24.317-1.483,35.922-2.489.45-7.286-4.423-8.793,0,1.47,4.456,4.883,1,5.884,3.108-5.117,3.41-5.223,12.111-7.307,18.78-3.35-4.779-4.008-12.446-5.824-18.78-2.987-3.108-2.9.724-5.856,1.568-1.268-4.514-2.184-1.687-5.9-1.568-4.363-4.7-9.312-8.771-16.029-10.914,2.3-7.766-5.155-4.976-4.514-10.946,3.186.753,2.85-2.222,3-4.668,4.835-2.668,6.895-8.217,11.693-10.957,3.231-5.471,5.475-11.894,13.222-12.484.1-2.787-1.8-3.282-1.476-6.236,9.87-2.075,15.376-3.376,21.9-6.254-.313-6.041,0-11.533,1.483-15.617-1.722-2.284-5.534-2.442-7.289-4.666,5.806-.518,10.808-.07,13.133,3.092,2.744-4.741,7.025,1.813,11.718,0-2.04,7.955,6.684,4.338,5.849,10.992-1.435,11.441-17.36,7.438-19.023,18.69,2.421,3.708,8.532,3.419,14.657,3.093C224.865-68,228.469-57.76,240.689-56.737c-3.274-8.087,2.444-7.874,1.47-17.168-.648-4.062-4.434-4.706-4.444-9.4,5.576.344,7.113,4.958,11.733,6.239-.413-4.059-.53-7.768,4.391-6.239-1.024-4.792,1.485-5.685,1.418-9.379-3.95,1.1-2.769-3.2-4.371-4.661-5-.884-8.8-3.04-13.171-4.7.418-3.186,4-3.014,4.444-6.211-1.887-3.746-6.447-4.637-5.925-10.926H223.1c.7-4.946-3.93-4.12-4.388-7.849-6.235-.9-9.675,1.133-14.642,1.616.873-9.681-11.561-6.61-13.191-1.616.545-5.819-1.166-9.147-5.842-9.4-7.556,4.973-16.341,20.937-7.309,29.715,2.151.869,7.513-1.773,7.309,1.547-1.572,4.592-4.631,7.528-7.309,10.992-3.746-3.862,3.075-3.388,1.485-9.417-5-3.5-9.754-7.321-11.751-14.075-5.564.75-4.641-5.388-11.638-3.09.505,3.724-2.76,3.365-1.539,7.766,5.022,2.125,3.163,14.544,0,17.22-2.144-1.356-3.156-3.913-2.852-7.821-7.37-1.106-7.37,5.781-13.269,6.249-5.441-2.489-11.41-4.425-14.588-9.371,6.528-1.184,8.81,2.083,14.588,1.547,3.229-3.232-.669-4.468,0-9.367,8.114-1.759,11.343-8.745,19-10.883-2.654-4.906-2.109-8.6-2.876-12.491h-21.9c-3.234,4.363-10.525,4.363-11.763,10.874-.744-2.308-2.144-3.863-2.9-6.208-3.872-.081-9.126,1.439-7.3-4.666,10.833,2.391,23.754-5.686,33.636-9.42,0,7.2,12.525,5.39,14.642,1.575-1.021-3.565-1.321-7.933-2.881-10.972-8.631,1.224-12.868,7.218-22,7.857v-9.361c-8-2.89-9.431,7.356-4.369,9.361-8.391,1.1-13.128-1.725-20.452-1.571,2.167,8.087-6.759,4.327-7.32,9.382,3.645,1.98,4.5-.793,5.806,1.568-.939,2.068-3.137,2.9-5.806,3.06-2.358-8.92-13.965-8.041-24.914-7.8-.767,7.576-4.507,11.866-8.805,15.638-.258,4.913,3.826,5.286,2.971,10.922,7.229.472,10.838-2.957,16.014-4.673-2.987,8.463,8.043,1.878,8.833,6.276,1.047,4.224-6.893-1.131-5.884,3.073-.033,8.457,16.013-.376,13.221,10.944,5.461-3.471,7.155-2.469,13.121,0h1.486c-.462-1.883,4.214-5.365,4.4-1.545-.257,1.85-2.323,1.742-4.4,1.545.391,3.943,6.268,8.876,0,10.977-1.725-.318-1.19-2.888-1.486-4.7-12.984-1.24-19.56-9.29-35.1-7.821-4.474-1.459-4.591-7.574-10.208-7.8-.693,4.435-4.57,5.517-8.81,6.226a10.964,10.964,0,0,0-1.42-7.824c-5.65.356-5.65,6.635-11.708,6.278-5.561,1.2-6.994-1.914-11.736-1.545-1.622.374-.956,3.092-2.925,3.092-1.42-.02-1.186-1.9-1.42-3.092-3.508.507-5.554,2.459-10.315,1.545C10.93-114.5-11.6-110.779-24.168-117.67c-10.944,5.105-25.143,6.551-32.2,7.819-3.34,6.061,2.644,6.175,4.335,10.967,5.594-.75,9.151.628,10.285,4.706-5.929-2.176-5.261,2.764-7.349,4.676-2.669-1.383-3.968-4.045-7.271-4.676C-61.935-88.158-75.308-90.4-79.818-83.3c8.073-.26,10.931,5.006,11.718,12.578,7.764-3,13.59.417,20.5-1.667-7.168,13.772-37.6,2.668-35.175,26.571,4.876,3.775,6.025,4.282,4.422,12.52,2.641.194,3.045-1.924,5.806-1.563.126,2.49-.683,5.943,1.475,6.239,2.071-4.983.676,6.39,4.424,4.676,1.8-6.084,8.328-7.471,13.133-3.108-6.315,5.256-8.6,14.729-16.041,18.737C-76.272-6.075-78.565.8-87.1,1.019c1.178,5.011-2.336,4.827-2.954,7.836,6.692.883,9.12-2.78,16.074-1.56,1.644-4.5,6.23-5.807,11.743-6.276,5.5-10.732,15.015-17.236,23.414-24.969h2.954c1.523-1.464.431-5.7,4.333-4.676.109-.939.255-1.851,1.443-1.527-.078.927-.164,1.84-1.443,1.527.631,6.986-3.915,8.263-5.842,12.5,12.031,1.421,14.942-6.87,24.9-7.823.656-7-.772-11.73-1.471-17.2,6.722,1.472,7.1-3.883,13.1-3.13A41.448,41.448,0,0,1,9.45-33.3c9.3,3.15,17.259,7.665,16.086,21.853,7.078-1.012.335-8.654,5.909-9.384.331,13.222-.467,27.47,4.32,35.937-4.412,4.059-1.5,5.786,0,10.951,0,3.08-3.978,1.934-2.852,6.263-.709,17.115-1.677,28.594,0,45.269,3.879,2.583,6.447,6.629,10.192,9.389,4.033,6.031,3.738,16.745,8.764,21.835-1.69.28-1.231,2.845-1.478,4.7,6.127,2.348,7.519,9.659,10.311,15.623,4.456-1.181,4.217,2.726,8.674,1.51.21-6.644-2.825-5.2-2.855-13.976-.833,0-1.654-1.328,0-1.6v1.6c3.1-.8,2.721,2.206,2.855,4.645a51.483,51.483,0,0,1,11.764,12.5c-1.059,11.008,2.818,16.774,5.806,23.444,12.1,3.206,19.207,11.209,33.679,7.75a61.408,61.408,0,0,0,5.889,10.969c5.523-1.205,7.016,1.906,11.652,1.568,1.389,3.756,4.293,5.835,7.32,7.781v4.7c8.464.939,10.182,8.975,17.615,10.931,1.49-2.065,1.4-5.8,4.363-6.2.54,5.612,2.994,9.314,4.381,13.971,0,3.14-3.963,2.06-2.895,6.278.674,8.043-4.688,9.616-5.849,15.633-2.838,10.9,5.887,16.849,0,21.86,2.553,2.982,7.216,3.708,10.258,6.289-1.211,2.254-4.707,2.206-7.317,3.08-1.065,12.575,5.37,17.168,13.173,20.361.585,3.727-2.709,3.36-1.485,7.783,5.466,4.56,7.417,12.87,16.132,14.06,2.669,6.971,7.291,11.937,7.264,21.85-1.485,2.058-1.372,5.756-2.853,7.786,1.922,1.035,2.673,3.353,2.853,6.264-3.929,7.031,1.76,15.231,0,24.984-7.9,5.042-4.267,22.524-7.264,32.8,2.151,4.32,5.983-2.709,7.264,1.595,1.331,7.649-5,7.154-7.264,10.891-1.862,5.077,4.654,1.22,2.876,6.3-2.789,3.777,1.606,7.557-1.483,12.442,1.428,10.619,6.354,16.081,3.017,25.026,4.31,3.645,3.854,12.449,8.744,15.615-.21,2.775,1.722,3.279,1.428,6.228,3.7.811,6.063,2.951,8.772,4.665,5.491-.949,15.095,2.58,16.062-3.138a13.383,13.383,0,0,1-8.745-6.253c1.094-5.263-5.91-1.967-4.384-7.779-.5-6.837,4.232-8.031,4.384-14.069,3.789-.189,5.68-2.254,5.892-6.21.746-5.546-5.16-3.815-4.4-9.4,3.925-4.815,9.942-20.238,0-21.865,9.8,2.65,9.463-5.44,11.686-10.893,7.879.548,10.57-4.413,16.124-6.276.968-7.284-2.346-10.032-2.953-15.579H262.6c.086-1.571,1.8-1.258,2.946-1.613.81-3.809,1.249-8.006,5.856-7.789-.524-8.861,5.521-10.739,8.75-15.648V343.112c2.787-2.777,4.555-6.62,7.3-9.407a120.889,120.889,0,0,0,13.176-4.671c.668-10.017,7.759-18.712,2.934-29.687,2.222-1.3,3.176-3.933,2.928-7.827,2.363.513,2.55-1.431,4.417-1.51.543-5.17,4.3-6.9,5.864-10.9,3.884-4.077-.217-7.549,4.328-9.389-1.007-4.8,1.478-5.743,1.478-9.424.074-5.806-1.478-9.891-2.906-14.007" transform="translate(90.053 158.741)"/>
    </g>
    <g id="Group_32" data-name="Group 32" transform="translate(689.265 53.155)">
      <path id="Path_13" data-name="Path 13" d="M7.555,17.316C5.414,10.136-1.454,8.134.18-3c10.344-.947,14.2-8.793,21.928-12.519C31.359-14.5,36.031-18.3,36.832-26.4H29.455c-.356,1.222-.023,3.1-1.5,3.1C16.988-22.012,8.806-17.688.18-13.919.909-5.9-6.9-6.845-5.694,1.678-7.5,5.006-11.152,6.261-11.5,11.042c4.649,3.294,9.221,6.8,14.56,9.411a4.1,4.1,0,0,1,4.5-3.136" transform="translate(11.5 26.4)"/>
    </g>
    <g id="Group_33" data-name="Group 33" transform="translate(937.844 53.058)">
      <path id="Path_14" data-name="Path 14" d="M5.863,6.226c3.516-2.519,5.244-6.908,8.825-9.379C9.122-3.922,7.939-10.344,2.935-9.4,2.3-9.309,1.576-5.725.019-6.3H-8.717C-10.672,5.085,1.716,1.235,5.863,6.226" transform="translate(8.924 9.491)"/>
    </g>
    <g id="Group_34" data-name="Group 34" transform="translate(460.969 114.075)">
      <path id="Path_15" data-name="Path 15" d="M9.849,9.88c.164-3.974,5.465-2.457,7.33-4.656,1.549-7.922-3.33-8.962-2.916-15.594C7.917-8.3,5.647-11.364-.376-8.849c-3.975-.96-3.665-6.529-8.8-6.2,1.8,7.553-5.813,5.211-5.813,10.874C-10.9-2.866-11.206-6.355-7.743-5.7c-.762,3.777-5.62,3.343-4.345,9.346C-4.762,1.6-6.349,9.028-1.811,9.88c1.206-3.216,10.165-1.6,11.66,0" transform="translate(14.992 15.062)"/>
    </g>
    <g id="Group_35" data-name="Group 35" transform="translate(263.413 129.457)">
      <path id="Path_16" data-name="Path 16" d="M8.682,3.787C2.884,2.131,6.7-.157,2.876-4.029-1.565-2.885-1.451-6.7-5.931-5.559-8-2.56-6.687,3.972-13.215,2.31c.091,5.446,4.8,6.233,10.2,6.178-.477-12.209,9.986,5.118,11.7-4.7" transform="translate(13.215 5.774)"/>
    </g>
    <g id="Group_36" data-name="Group 36" transform="translate(513.565 160.823)">
      <path id="Path_17" data-name="Path 17" d="M11.659,13.65c-2.036-1.629-4.517-2.6-5.939-4.686C7.55-.292-3.981-1.761,1.358-9.8c-1.978-1.59-4.441-2.572-5.9-4.718C-2.425-15.838.1-16.81-.132-20.745c-5.362-.482-8.17,1.764-11.668,3.1,1.084,8.521-2.315,12.146-1.48,20.33A24.643,24.643,0,0,0-6.011,5.8c.615,5.539-4.923,8.591-7.269,6.221-1.142,7.038,1.011,10.462,2.929,14.1-2.57,1.439-7.846-.093-7.367,4.693,7.272-1.133,14.609-2.134,23.438-1.588,1.2-6.69.4-11.106,5.939-15.575" transform="translate(17.747 20.811)"/>
    </g>
    <g id="Group_37" data-name="Group 37" transform="translate(501.87 184.316)">
      <path id="Path_18" data-name="Path 18" d="M.58,6.818c3.375-1.671,8.886-1.03,11.739-3.141-1.544-6.531-.34-6.9,0-14.07H5.034c-.089,6.988-3.322,1.977-5.847,4.7C-.631-1.187-1.622,4.5.58,6.818" transform="translate(0.883 10.394)"/>
    </g>
    <g id="Group_38" data-name="Group 38" transform="translate(996.509 232.753)">
      <path id="Path_19" data-name="Path 19" d="M3.479,5.566c2.822.2,1.055,5.145,4.421,4.671C11.134,6.4,10.632-1.394,16.66-2.225,9-3.4,4.2-7.665-3.8-8.486-2.739-1.063-5.452,2.239-5.289,8.735c4.023,4.181,3.644-4.045,8.769-3.169" transform="translate(5.296 8.486)"/>
    </g>
    <g id="Group_39" data-name="Group 39" transform="translate(971.657 251.476)">
      <path id="Path_20" data-name="Path 20" d="M0,17.335c-.255,5.491,3.45,6.7,5.852,9.313,1.017-5.655,4.563-8.631,8.805-10.924a6.863,6.863,0,0,1,4.345,1.611c4.626-6.016,14.326-6.6,19.033-12.52-.254-11.138-3.243-19.5-2.893-31.244H29.234c1.8,7.321-.752,10.9,1.514,18.732-1.162.378-1.683,1.33-1.514,3.2C23.983-2.124,21.395-.3,16.069,4.815,10.924,7.681,1.624,6.005,1.442,14.207.782,18.516,9.411,13,8.8,17.335Z" transform="translate(0.008 26.429)"/>
    </g>
    <g id="Group_40" data-name="Group 40" transform="translate(614.604 280.998)">
      <path id="Path_21" data-name="Path 21" d="M0,.682C.427,5.051,4.855,1.941,8.747,5.405,9.806-.435,6.507-1.51,1.48-.882,1.718.421.875.591,0,.682" transform="translate(0 1.04)"/>
    </g>
    <g id="Group_41" data-name="Group 41" transform="translate(940.892 329.929)">
      <path id="Path_22" data-name="Path 22" d="M0,2.349C2.381,4.525,3.783,7.671,4.4,11.7c6.093-.358,5.594-7.647,5.917-14.039C6.648-5.819,1.572-1.249,0,2.349" transform="translate(0 3.582)"/>
    </g>
    <g id="Group_42" data-name="Group 42" transform="translate(263.413 331.169)">
      <path id="Path_23" data-name="Path 23" d="M0,0V6.226H5.854C5.672,2.3,3.735.164,0,0"/>
    </g>
    <g id="Group_43" data-name="Group 43" transform="translate(273.475 331.169)">
      <path id="Path_24" data-name="Path 24" d="M2.39,3.064C2.824-.5,2.173-2.879.909-4.672H-3.505c-.548,5.32.449,8.894,5.9,7.736" transform="translate(3.638 4.672)"/>
    </g>
    <g id="Group_44" data-name="Group 44" transform="translate(280.934 337.395)">
      <path id="Path_25" data-name="Path 25" d="M0,0V7.813c3.07.629,3.909-1.07,5.857-1.6C5.685,2.27,3.758.167,0,0"/>
    </g>
    <g id="Group_45" data-name="Group 45" transform="translate(242.896 340.522)">
      <path id="Path_26" data-name="Path 26" d="M13.927,8.658c5.256-.912,7.085,1.8,10.3,3.141.109-4.5,6.051-2.847,10.172-3.141C32.3-1.69,24.23-.277,15.408-.716c1.077-4.259-2.989-3.156-2.989-6.238C9.251-8.714,4.381-8.8,3.687-13.2h-21.9c-.654,2.969-3.185,3.916-2.971,7.826,5.958.609,5.925-5.153,13.188-3.141C-1.839-7.227-1.158-.161,5.172.849c3.485.974,10.6-1.969,11.667,1.565-5.347.159-3.65,2.247-2.911,6.244" transform="translate(21.2 13.2)"/>
    </g>
    <g id="Group_46" data-name="Group 46" transform="translate(286.223 343.61)">
      <path id="Path_27" data-name="Path 27" d="M2.543.632C2.087-1.507-1.1-.681-3.3-.964-6.387,4.815,4.155,6.1,2.543.632" transform="translate(3.87 0.964)"/>
    </g>
    <g id="Group_47" data-name="Group 47" transform="translate(946.783 354.637)">
      <path id="Path_28" data-name="Path 28" d="M0,3.067a29.683,29.683,0,0,0,8.78,9.367c1.836-4.855,6.807-6.251,5.89-14.06C10.685-7.28-.2-4.707,0,3.067" transform="translate(0.002 4.676)"/>
    </g>
    <g id="Group_48" data-name="Group 48" transform="translate(909.887 356.122)">
      <path id="Path_29" data-name="Path 29" d="M.69,4.341c4.127-.9,4.127-6.087,5.892-9.394C5.271-6.26,3.271-6.711.69-6.6c-2.706,6.089-1.9,1.285,0,10.944" transform="translate(1.05 6.618)"/>
    </g>
    <g id="Group_49" data-name="Group 49" transform="translate(261.898 359.18)">
      <path id="Path_30" data-name="Path 30" d="M0,.017v6.3c4.926-1.669,5.042.5,10.232-1.563C11.232-1.5,4.706.288,0,.017" transform="translate(0 0.025)"/>
    </g>
    <g id="Group_50" data-name="Group 50" transform="translate(301.396 359.222)">
      <path id="Path_31" data-name="Path 31" d="M0,2.5c5.291.386,10.162.338,8.805-6.3H0Z" transform="translate(0 3.805)"/>
    </g>
    <g id="Group_51" data-name="Group 51" transform="translate(452.002 365.522)">
      <path id="Path_32" data-name="Path 32" d="M1.216,0c0,3.063-3.97,1.979-2.876,6.226H4.154C4.586,2.653,3.758.338,1.216,0" transform="translate(1.851)"/>
    </g>
    <g id="Group_52" data-name="Group 52" transform="translate(958.521 374.877)">
      <path id="Path_33" data-name="Path 33" d="M0,6.19c3.032,3.357,4.131-.8,8.739,0-.469,3.643-3.125,6.743,1.5,7.786,2.071-4.57,6.156-6.953,13.145-6.234C24.758.55,18.715,1.277,16.072-1.62c.368-5.122-1.725-7.548-5.836-7.818-2.06,2.014-1.453,6.769-1.5,10.932C3.852-1.175,2.411,2.427,0,6.19" transform="translate(0 9.438)"/>
    </g>
    <g id="Group_53" data-name="Group 53" transform="translate(811.527 395.165)">
      <path id="Path_34" data-name="Path 34" d="M.82,0c2.093,9.253-5.566,11.154,0,15.612,4.62.763,3.9-4.193,7.347-4.676C6.954,5.989,3.914,2.967.82,0" transform="translate(1.249)"/>
    </g>
    <g id="Group_54" data-name="Group 54" transform="translate(910.196 409.189)">
      <path id="Path_35" data-name="Path 35" d="M0,11.164c1.43,6.279,7.8,7.264,7.322,15.594,9.494-2.35,8.038,7,17.535,4.656-.416-3.582,4.207-1.717,4.421-4.656-1.118-.363-2.895-.055-2.906-1.61,4.8-2.144,2.393-11.9,7.354-13.984-3.369-5.079,1.21-10.4-1.514-14.107,2.553-1.391,5.045-2.861,4.379-7.75-3.536-2.984-6.393-6.721-13.173-6.3C22.056-.689,2.6-3.823,0,11.164" transform="translate(0 17.021)"/>
    </g>
    <g id="Group_55" data-name="Group 55" transform="translate(863.352 412.371)">
      <path id="Path_36" data-name="Path 36" d="M7.538,5.553C5.336,1.915.706-.594,1.748-5.318c-4,1.08-2.966-3.148-5.874-3.148.184,6.877-3.582-.18-7.349,1.537,0,18.241,20.568,14.531,17.617,35.912,7.2.858,9.223,11.141,16.031,7.8,3.365-5.965-3.016-12.792-2.838-20.248-4.48-3.216-9.743-7.667-11.8-10.985" transform="translate(11.474 8.466)"/>
    </g>
    <g id="Group_56" data-name="Group 56" transform="translate(944.664 429.539)">
      <path id="Path_37" data-name="Path 37" d="M7.824,3.709C7.516-3.226-1.423-1.033-3.943-5.655-11.443.777-16.651,18.15-5.37,23.987c-.321-4.5.338-7.942,2.908-9.361C.754,17.637.955,22.58,6.316,19.357,5.569,12.832.67,10.727.477,3.709a5.183,5.183,0,0,0,7.347,0" transform="translate(11.91 5.655)"/>
    </g>
    <g id="Group_57" data-name="Group 57" transform="translate(980.451 430.822)">
      <path id="Path_38" data-name="Path 38" d="M6.37.724C1.609-2.457-10.074-1.845-9.686,5.449-4.679,8.776,6.007,7.225,6.37.724" transform="translate(9.696 1.103)"/>
    </g>
    <g id="Group_58" data-name="Group 58" transform="translate(984.671 438.903)">
      <path id="Path_39" data-name="Path 39" d="M11.094,0H.854c-1.311,2.28-2.189,4.981-5.9,4.691C-9.573,5.874-7.772.344-12.279,1.538c.421,4.1-5.771,1.268-4.412,6.225.184,3.529,3.642-1.947,7.233,0,6.535,5.628,15.082,9,20.553,15.647v9.384c7.826-5.052,10.172,3.191,16.094,4.68,5.138-.225,3.523-7.71,10.238-6.246,3.43,2.134,7.314,11.891,13.153,6.246-3.045-1.379-4.452-4.625-4.391-9.324-3.828-3.756-9.2-5.771-11.68-10.967V12.456C23.224,12.038,20.154,2.843,11.094,0" transform="translate(16.887)"/>
    </g>
    <g id="Group_59" data-name="Group 59" transform="translate(898.232 459.182)">
      <path id="Path_40" data-name="Path 40" d="M14.6,6.2c.815-5.527-5.107-3.857-4.354-9.381-11.933.326-20.432-3.249-29.29-6.269-1.282,2.779-4.093,4.011-2.88,9.377C-7.975.1-1.333,8.156,14.6,6.2" transform="translate(22.222 9.451)"/>
    </g>
    <g id="Group_60" data-name="Group 60" transform="translate(917.518 481.038)">
      <path id="Path_41" data-name="Path 41" d="M49.88,21.669C50.473,14.3,47.328,10.917,48.432,2.9,45.565,1.857,45.1-1.8,42.621-3.326c-.515-11.959-10.479-13.833-8.792-28.116-2.729.336-3.2-1.742-5.831-1.586-3.77,6.43,1.572,22.575-4.446,26.567C17.8-4.409,20.6-11.613,14.774-9.6c-.227-4.368-6.908-1.893-5.806-7.779-.756-4.951,7.213-.583,5.806-6.2C9.694-29.65-5.3-25.16-12.984-28.3c-2.548.95.073,7.392-2.938,7.776A53.084,53.084,0,0,0-30.555-15.8c-1.836,4.723-.515,13-5.837,14.06-3.483-3.7-7.233.225-11.764,0-2.85,1.081.351,8.72-2.88,9.324-3.022-.859-2.85-4.685-5.841-1.53-3.647,3.913-1.93,13.539-7.315,15.614-3.286,2.24-9.791,1.033-11.735,4.68,1.551,6.955,5.128,15.615,1.47,23.424,2.853,1.111,3.852,4.2,4.386,7.809.8,7.124-2.608,9.722-1.519,17.177,4.373-.412,4.581,3.52,8.845,3.143,6.108-2.848,9.695-8.352,20.5-6.269,5.156-6.956,15.421-8.51,27.8-7.789,4.177,3.27,6.873,8.265,8.729,14.059,5.723-2.921,3.952,3.6,10.266,0-.06,4.108.524,8.877-1.485,10.924,9.363,5.8,14.9,6.138,29.306,6.276,3.688-2.817,6.409-6.749,11.7-7.912-.719-7.977,6.976-7.014,5.8-15.557,5.112-.356,3.824-7.443,8.812-7.789-1.672-5.544,2.515-8.861,2.92-14.07.8-9.536-2.832-19.288-4.379-28.1-3.659-2.075-6.051,4.6-7.352,0" transform="translate(75.927 33.036)"/>
    </g>
    <g id="Group_61" data-name="Group 61" transform="translate(680.411 485.742)">
      <path id="Path_42" data-name="Path 42" d="M8.722.012A46.961,46.961,0,0,0,2.848,15.64C-3.5,17.2-6.724,21.954-10.279,26.576c-1.178,5.395,2.119,6.032,1.443,10.917-1.321,3.264-2.33,6.925-4.441,9.381,3.195,7.046-1.007,13.277,4.441,18.745,4.741.286,6.179-2.777,11.683-1.575C6.026,57.049,4.8,53.951,8.722,46.874V39.055c.348-1.75,1.606-2.441,2.911-3.155-2.659-6.834,2.691-13.314,3-24.968C9.144,11.012,14.766-.68,8.722.012" transform="translate(13.276 0.018)"/>
    </g>
    <g id="Group_62" data-name="Group 62" transform="translate(1113.475 584.091)">
      <path id="Path_43" data-name="Path 43" d="M4.113,3.123C4.4-1.345,4.307-5.436-.26-4.668V7.763c-1.17,4.593-6.959,4.083-5.864,11,9.836-1.542,3.347,4.65,2.92,9.348,9.247-.47,9.582-10.671,13.2-17.183,2.186-2.345,6.109-2.8,7.271-6.291C13.74-.184,11.052,3.706,4.113,3.123" transform="translate(6.261 4.761)"/>
    </g>
    <g id="Group_63" data-name="Group 63" transform="translate(1079.91 610.726)">
      <path id="Path_44" data-name="Path 44" d="M11.029,0C9.781,3.285,6.64,4.617,6.7,9.341,4.1,9.225,2.154,9.709.792,10.9c-2.467,3.128-3.4,7.836-7.282,9.346-6.04,2.449-7.814,9.348-10.3,15.647,4.785-2.529,7.95-.77,13.169,0,1.385-3.721,5.905-4.136,4.411-10.949H6.7c.406-8.9,11.488-6.4,11.647-15.6C17.834,4.163,14.02,2.606,11.029,0" transform="translate(16.788)"/>
    </g>
    <g id="Group_64" data-name="Group 64" transform="translate(1007.96 614.729)">
      <path id="Path_45" data-name="Path 45" d="M.1.25c-1.629,2.4,4.888,9.442,5.9,14.1,7.117-.744,11.7-4.138,10.235-14.1C9.851,1.508,2.691-1.663.1.25" transform="translate(0.157 0.381)"/>
    </g>
    <g id="Group_65" data-name="Group 65" transform="translate(345.305 659.551)">
      <path id="Path_46" data-name="Path 46" d="M0,1.672H5.873c1-6.147-6.1-5.087-5.871,0" transform="translate(0.003 2.55)"/>
    </g>
  </g>
</svg>
